<svg width="14" height="13" viewBox="0 0 14 13" fill="none" xmlns="http://www.w3.org/2000/svg">
<path d="M3.00001 11.6676L2.33334 12.3342M11 11.6676L11.6667 12.3342M1.00001 6.33424V7.0009C1.00001 9.2009 1.00001 10.3009 1.68334 10.9842C2.36668 11.6676 3.46668 11.6676 5.66668 11.6676H8.33334C10.5333 11.6676 11.6333 11.6676 12.3167 10.9842C13 10.3009 13 9.2009 13 7.0009V6.33424M0.333344 6.33424H13.6667M1.66668 6.33424V2.01623C1.66644 1.61169 1.81202 1.22062 2.07672 0.914693C2.34142 0.608769 2.70751 0.408495 3.10788 0.350581C3.50826 0.292667 3.9161 0.380993 4.25664 0.599369C4.59717 0.817746 4.8476 1.15154 4.96201 1.53957L5.00001 1.66757M4.33334 2.33424L6.00001 1.0009" stroke="black" stroke-width="0.666667" stroke-linecap="round" stroke-linejoin="round"/>
</svg>
