<svg width="20" height="20" viewBox="0 0 20 20" fill="none" xmlns="http://www.w3.org/2000/svg">
<path d="M19.1667 18.958H0.833374C0.491707 18.958 0.208374 18.6747 0.208374 18.333C0.208374 17.9913 0.491707 17.708 0.833374 17.708H19.1667C19.5084 17.708 19.7917 17.9913 19.7917 18.333C19.7917 18.6747 19.5084 18.958 19.1667 18.958Z" fill="#999999"/>
<path d="M16.4835 18.9667C16.1419 18.9667 15.8585 18.6834 15.8585 18.3417V14.625C15.8585 14.2833 16.1419 14 16.4835 14C16.8252 14 17.1085 14.2833 17.1085 14.625V18.3417C17.1085 18.6834 16.8335 18.9667 16.4835 18.9667Z" fill="#999999"/>
<path d="M16.5001 15.2497C15.1418 15.2497 14.0417 14.1497 14.0417 12.7914V10.8997C14.0417 9.54142 15.1418 8.44141 16.5001 8.44141C17.8584 8.44141 18.9584 9.54142 18.9584 10.8997V12.7914C18.9584 14.1497 17.8584 15.2497 16.5001 15.2497ZM16.5001 9.69975C15.8334 9.69975 15.2917 10.2414 15.2917 10.9081V12.7997C15.2917 13.4664 15.8334 14.0081 16.5001 14.0081C17.1668 14.0081 17.7084 13.4664 17.7084 12.7997V10.9081C17.7084 10.2414 17.1668 9.69975 16.5001 9.69975Z" fill="#999999"/>
<path d="M11.9165 18.9588C11.5749 18.9588 11.2915 18.6754 11.2915 18.3338V5.02547C11.2915 3.70047 10.7332 3.13379 9.43323 3.13379H4.24158C2.93324 3.13379 2.36658 3.70047 2.36658 5.02547V18.3338C2.36658 18.6754 2.08324 18.9588 1.74158 18.9588C1.39991 18.9588 1.11658 18.6754 1.11658 18.3338V5.02547C1.11658 3.00047 2.22491 1.88379 4.24158 1.88379H9.43323C11.4416 1.88379 12.5415 3.00047 12.5415 5.02547V18.3338C12.5415 18.6754 12.2582 18.9588 11.9165 18.9588Z" fill="#999999"/>
<path d="M8.95814 7.5H4.83313C4.49146 7.5 4.20813 7.21667 4.20813 6.875C4.20813 6.53333 4.49146 6.25 4.83313 6.25H8.95814C9.29981 6.25 9.58314 6.53333 9.58314 6.875C9.58314 7.21667 9.29981 7.5 8.95814 7.5Z" fill="#999999"/>
<path d="M8.95814 10.625H4.83313C4.49146 10.625 4.20813 10.3417 4.20813 10C4.20813 9.65833 4.49146 9.375 4.83313 9.375H8.95814C9.29981 9.375 9.58314 9.65833 9.58314 10C9.58314 10.3417 9.29981 10.625 8.95814 10.625Z" fill="#999999"/>
<path d="M6.875 18.958C6.53333 18.958 6.25 18.6747 6.25 18.333V15.208C6.25 14.8663 6.53333 14.583 6.875 14.583C7.21667 14.583 7.5 14.8663 7.5 15.208V18.333C7.5 18.6747 7.21667 18.958 6.875 18.958Z" fill="#999999"/>
</svg>
