<svg width="20" height="20" viewBox="0 0 20 20" fill="none" xmlns="http://www.w3.org/2000/svg">
<path d="M9.43333 2.5H4.24167C2.58333 2.5 1.75 3.34167 1.75 5.01667V18.3333H6.25V15.2083C6.25 14.8667 6.53333 14.5833 6.875 14.5833C7.21667 14.5833 7.5 14.8583 7.5 15.2083V18.3333H11.9167V5.01667C11.9167 3.34167 11.0917 2.5 9.43333 2.5ZM8.95833 10.625H4.83333C4.49167 10.625 4.20833 10.3417 4.20833 10C4.20833 9.65833 4.49167 9.375 4.83333 9.375H8.95833C9.3 9.375 9.58333 9.65833 9.58333 10C9.58333 10.3417 9.3 10.625 8.95833 10.625ZM8.95833 7.5H4.83333C4.49167 7.5 4.20833 7.21667 4.20833 6.875C4.20833 6.53333 4.49167 6.25 4.83333 6.25H8.95833C9.3 6.25 9.58333 6.53333 9.58333 6.875C9.58333 7.21667 9.3 7.5 8.95833 7.5Z" fill="#1A1A1A"/>
<path d="M19.1666 17.7081H17.275V15.2081C18.0666 14.9498 18.6416 14.2081 18.6416 13.3331V11.6664C18.6416 10.5748 17.75 9.68311 16.6583 9.68311C15.5666 9.68311 14.675 10.5748 14.675 11.6664V13.3331C14.675 14.1998 15.2416 14.9331 16.0166 15.1998V17.7081H0.833313C0.491646 17.7081 0.208313 17.9914 0.208313 18.3331C0.208313 18.6748 0.491646 18.9581 0.833313 18.9581H16.6083C16.625 18.9581 16.6333 18.9664 16.65 18.9664C16.6666 18.9664 16.675 18.9581 16.6916 18.9581H19.1666C19.5083 18.9581 19.7916 18.6748 19.7916 18.3331C19.7916 17.9914 19.5083 17.7081 19.1666 17.7081Z" fill="#1A1A1A"/>
</svg>
