<svg width="15" height="15" viewBox="0 0 15 15" fill="none" xmlns="http://www.w3.org/2000/svg">
<path d="M6.7176 0.959473C3.54269 0.959473 0.959637 3.54253 0.959637 6.71743C0.959637 9.89234 3.54269 12.4754 6.7176 12.4754C9.89251 12.4754 12.4756 9.89234 12.4756 6.71743C12.4756 3.54253 9.89251 0.959473 6.7176 0.959473ZM9.59658 4.79811L5.75794 9.59642C5.71713 9.64503 5.81525 9.56914 5.75794 9.59642C5.70062 9.62369 5.8214 9.59541 5.75794 9.59642C5.69586 9.59639 5.81464 9.62169 5.75794 9.59642C5.70123 9.57114 5.79946 9.64257 5.75794 9.59642L3.83862 7.67709C3.79812 7.63414 3.85927 7.73239 3.83862 7.67709C3.81796 7.6218 3.8362 6.77641 3.83862 6.71743C3.8135 6.77085 3.84104 6.65845 3.83862 6.71743C3.79474 6.75692 3.86374 6.66401 3.83862 6.71743C3.78285 6.7368 3.8825 6.67795 3.83862 6.71743C3.77971 6.71364 3.89438 6.69807 3.83862 6.71743C3.7858 6.69108 3.89753 6.72122 3.83862 6.71743C3.89144 6.74379 4.75982 6.67265 4.79828 6.71743L5.75794 8.63675L8.63692 3.83845C8.71304 3.75045 9.48059 3.8477 9.59658 3.83845C9.50748 3.76361 9.71257 3.82921 9.59658 3.83845C9.68568 3.9133 9.58566 4.68227 9.59658 4.79811C9.67013 4.70794 9.6075 4.91396 9.59658 4.79811Z" fill="#008000"/>
</svg>
