<svg width="14" height="14" viewBox="0 0 14 14" fill="none" xmlns="http://www.w3.org/2000/svg">
<path d="M6.99999 8.266C5.75749 8.266 4.74249 7.25684 4.74249 6.0085C4.74249 4.76017 5.75749 3.75684 6.99999 3.75684C8.24249 3.75684 9.25749 4.766 9.25749 6.01434C9.25749 7.26267 8.24249 8.266 6.99999 8.266ZM6.99999 4.63184C6.24166 4.63184 5.61749 5.25017 5.61749 6.01434C5.61749 6.7785 6.23583 7.39684 6.99999 7.39684C7.76416 7.39684 8.38249 6.7785 8.38249 6.01434C8.38249 5.25017 7.75833 4.63184 6.99999 4.63184Z" fill="black"/>
<path d="M6.99998 13.2765C6.13665 13.2765 5.26748 12.9498 4.59081 12.3023C2.86998 10.6457 0.968314 8.00317 1.68581 4.859C2.33331 2.0065 4.82415 0.729004 6.99998 0.729004C6.99998 0.729004 6.99998 0.729004 7.00581 0.729004C9.18165 0.729004 11.6725 2.0065 12.32 4.86484C13.0316 8.009 11.13 10.6457 9.40915 12.3023C8.73248 12.9498 7.86331 13.2765 6.99998 13.2765ZM6.99998 1.604C5.30248 1.604 3.12081 2.50817 2.54331 5.0515C1.91331 7.799 3.63998 10.1673 5.20331 11.6665C6.21248 12.6407 7.79331 12.6407 8.80248 11.6665C10.36 10.1673 12.0866 7.799 11.4683 5.0515C10.885 2.50817 8.69748 1.604 6.99998 1.604Z" fill="black"/>
</svg>
