<svg width="16" height="16" viewBox="0 0 16 16" fill="none" xmlns="http://www.w3.org/2000/svg">
<path d="M1.33334 8.00003H14.6667M13.3333 8.00003V13.3334C13.3333 13.687 13.1929 14.0261 12.9428 14.2762C12.6928 14.5262 12.3536 14.6667 12 14.6667H4.00001C3.64639 14.6667 3.30725 14.5262 3.0572 14.2762C2.80715 14.0261 2.66668 13.687 2.66668 13.3334V8.00003M2.66668 5.33336L13.3333 2.6667M5.90668 4.52003L5.60668 3.31336C5.56369 3.14352 5.55461 2.96687 5.57993 2.79351C5.60526 2.62015 5.6645 2.45348 5.75428 2.30303C5.84405 2.15258 5.9626 2.02129 6.10314 1.91668C6.24368 1.81207 6.40346 1.73619 6.57334 1.69336L7.86668 1.37336C8.03697 1.33049 8.21405 1.32167 8.38776 1.34742C8.56147 1.37318 8.72838 1.43299 8.87891 1.52343C9.02944 1.61387 9.16062 1.73316 9.26492 1.87444C9.36921 2.01572 9.44458 2.17621 9.48668 2.3467L9.78668 3.5467" stroke="black" stroke-width="0.666667" stroke-linecap="round" stroke-linejoin="round"/>
</svg>
