<svg width="160" height="160" viewBox="0 0 160 160" fill="none" xmlns="http://www.w3.org/2000/svg">
<g clip-path="url(#clip0_439_15362)">
<path d="M80 0C64.1775 0 48.7103 4.69192 35.5544 13.4824C22.3985 22.2729 12.1447 34.7672 6.08967 49.3853C0.0346629 64.0034 -1.5496 80.0887 1.53721 95.6072C4.62403 111.126 12.2433 125.38 23.4315 136.569C34.6197 147.757 48.8743 155.376 64.3928 158.463C79.9113 161.55 95.9966 159.965 110.615 153.91C125.233 147.855 137.727 137.602 146.518 124.446C155.308 111.29 160 95.8225 160 80C160 58.7827 151.571 38.4344 136.569 23.4315C121.566 8.42855 101.217 0 80 0ZM76.8 113.333L40 85.2667L52.2 69.4667L74.2667 86.6667L104.333 52.8L119.267 66.1333L76.8 113.333Z" fill="#34A853"/>
</g>
<defs>
<clipPath id="clip0_439_15362">
<rect width="160" height="160" fill="white"/>
</clipPath>
</defs>
</svg>
