<svg width="160" height="160" viewBox="0 0 160 160" fill="none" xmlns="http://www.w3.org/2000/svg">
<g clip-path="url(#clip0_439_15332)">
<path d="M80 0C36 0 0 36 0 80C0 124 36 160 80 160C124 160 160 124 160 80C160 36 124 0 80 0ZM73.7143 34.2857H86.2857V97.1429H73.7143V34.2857ZM80 131.429C75.4286 131.429 71.4286 127.429 71.4286 122.857C71.4286 118.286 75.4286 114.286 80 114.286C84.5714 114.286 88.5714 118.286 88.5714 122.857C88.5714 127.429 84.5714 131.429 80 131.429Z" fill="#F8BD00"/>
</g>
<defs>
<clipPath id="clip0_439_15332">
<rect width="160" height="160" fill="white"/>
</clipPath>
</defs>
</svg>
