<svg width="40" height="16" viewBox="0 0 40 16" fill="none" xmlns="http://www.w3.org/2000/svg">
<path d="M7.3064 2.03419C6.8364 2.56619 6.08765 2.98775 5.34015 2.926C5.2414 2.20875 5.6139 1.44044 6.0439 0.96425C6.51265 0.421563 7.33265 0.0320625 7.99765 0C8.0764 0.749312 7.76765 1.48556 7.3064 2.03419ZM7.99015 3.06731C6.9039 3.00438 5.9714 3.65988 5.4564 3.65988C4.93015 3.65988 4.1414 3.09819 3.28265 3.11719C2.1689 3.13025 1.12765 3.73469 0.561397 4.70725C-0.617353 6.64169 0.255147 9.50594 1.38765 11.0829C1.9414 11.8619 2.6039 12.7157 3.47765 12.692C4.3039 12.6599 4.6364 12.1731 5.63265 12.1731C6.6414 12.1731 6.92765 12.692 7.80765 12.673C8.7114 12.6599 9.2839 11.894 9.83765 11.115C10.4689 10.2303 10.7289 9.36344 10.7426 9.32069C10.7289 9.30169 8.9914 8.66519 8.9789 6.74738C8.96515 5.13831 10.3451 4.37238 10.4039 4.32844C9.6289 3.21575 8.40515 3.09819 7.9889 3.0685L7.99015 3.06731ZM14.2601 0.889438V12.5922H16.1539V8.59156H18.7726C21.1614 8.59156 22.8414 7.01456 22.8414 4.73813C22.8414 2.45694 21.1952 0.890625 18.8376 0.890625L14.2601 0.889438ZM16.1539 2.42369H18.3351C19.9751 2.42369 20.9139 3.26444 20.9139 4.74288C20.9139 6.22131 19.9751 7.06919 18.3226 7.06919H16.1539V2.42369ZM26.2901 12.6789C27.4814 12.6789 28.5814 12.1042 29.0839 11.1874H29.1239V12.5922H30.8739V6.76519C30.8739 5.08369 29.4689 3.99 27.3001 3.99C25.2952 3.99 23.8102 5.09675 23.7589 6.612H25.4577C25.6014 5.88881 26.2914 5.41856 27.2489 5.41856C28.4076 5.41856 29.0527 5.9375 29.0527 6.89106V7.5335L26.6964 7.67006C24.4951 7.7995 23.3102 8.65925 23.3102 10.1626C23.3102 11.6779 24.5352 12.6801 26.2914 12.6801L26.2901 12.6789ZM26.8052 11.2931C25.7952 11.2931 25.1514 10.8288 25.1514 10.1187C25.1514 9.38244 25.7702 8.949 26.9477 8.88013L29.0514 8.75663V9.41806C29.0514 10.5141 28.0814 11.2931 26.7976 11.2931H26.8052ZM33.2114 15.7771C35.0527 15.7771 35.9202 15.0967 36.6752 13.0494L39.9952 4.10638H38.0752L35.8489 11.0141H35.8089L33.5827 4.10638H31.6039L34.8077 12.6231L34.6377 13.1421C34.3439 14.0149 33.8764 14.3533 33.0427 14.3533C32.8927 14.3533 32.6064 14.3355 32.4889 14.3236V15.7284C32.5989 15.7581 33.0689 15.7712 33.2052 15.7712L33.2114 15.7771Z" fill="black"/>
</svg>
