<svg width="40" height="16" viewBox="0 0 40 16" fill="none" xmlns="http://www.w3.org/2000/svg">
<g clip-path="url(#clip0_439_14705)">
<path d="M28.3536 4.30133C29.4532 4.30133 30.303 4.60125 30.9528 5.20109C31.6026 5.80086 31.9025 6.60062 31.9025 7.60031V12.3987H30.5029V11.2992H30.4529C29.8532 12.199 29.0034 12.6488 28.0037 12.6488C27.1539 12.6488 26.4042 12.3988 25.8044 11.8991C25.2546 11.3992 24.9046 10.6995 24.9046 9.94969C24.9046 9.1499 25.2046 8.50008 25.8044 8.00023C26.4042 7.50039 27.2539 7.30047 28.2536 7.30047C29.1533 7.30047 29.8532 7.45047 30.4029 7.80031V7.45047C30.4029 6.98391 30.2288 6.51742 29.8804 6.21344L29.8031 6.15086C29.4032 5.80094 28.9034 5.60102 28.3536 5.60102C27.5039 5.60102 26.8541 5.95091 26.4042 6.6507L25.1046 5.85078C25.9043 4.80109 26.954 4.30133 28.3536 4.30133ZM21.3058 0.902344C22.2027 0.902344 23.055 1.21445 23.7365 1.79648L23.855 1.90195C24.5548 2.5018 24.9046 3.40156 24.9046 4.35125C24.9046 5.30094 24.5548 6.1507 23.855 6.80047C23.1553 7.45023 22.3055 7.80016 21.3058 7.80016L18.9066 7.75016V12.3987H17.407V0.902344H21.3058ZM28.5535 8.5C27.9537 8.5 27.4539 8.64995 27.054 8.94984C26.6541 9.19974 26.4542 9.54961 26.4542 9.99945C26.4542 10.3994 26.6542 10.7492 26.954 10.9492C27.3039 11.1991 27.7038 11.3491 28.1037 11.3491C28.6635 11.3491 29.2233 11.1313 29.6612 10.7366L29.7532 10.6493C30.253 10.1995 30.5029 9.64961 30.5029 9.04977C30.0531 8.69992 29.4032 8.49992 28.5535 8.49992M21.4059 2.3018H18.9067V6.30078H21.4059C21.9557 6.30078 22.5055 6.10086 22.8554 5.70102C23.6551 4.95125 23.6551 3.70164 22.9054 2.9518L22.8554 2.9018C22.4555 2.50195 21.9557 2.25203 21.4058 2.30203M40 4.55125L35.0515 15.8977H33.552L35.4014 11.949L32.1524 4.60125H33.7519L36.1011 10.2495H36.1511L38.4504 4.60125H40V4.55125Z" fill="#5F6368"/>
<path d="M12.9585 6.75041C12.9585 6.30057 12.9085 5.85072 12.8585 5.40088H6.6106V7.9501H10.1594C10.0095 8.74978 9.55966 9.49955 8.85989 9.94947V11.5989H11.0092C12.2588 10.4493 12.9586 8.74978 12.9586 6.75049" fill="#4285F4"/>
<path d="M6.61053 13.1985C8.4099 13.1985 9.90943 12.5986 11.0091 11.5989L8.85982 9.94947C8.25998 10.3493 7.51021 10.5992 6.61053 10.5992C4.911 10.5992 3.41146 9.44963 2.91162 7.8501H0.712402V9.54955C1.86201 11.7988 4.11131 13.1985 6.61053 13.1985Z" fill="#34A853"/>
<path d="M2.91154 7.85023C2.6117 7.05047 2.6117 6.15078 2.91154 5.30102V3.60156H0.712324C-0.237441 5.45102 -0.237441 7.65031 0.712324 9.54969L2.91154 7.85023Z" fill="#FBBC04"/>
<path d="M6.61041 2.6019C7.5601 2.6019 8.45978 2.95182 9.15963 3.60159L11.059 1.70221C9.85932 0.602527 8.25986 -0.047239 6.66033 0.00268285C4.16111 0.00268285 1.86189 1.40229 0.762207 3.65159L2.9615 5.35104C3.41135 3.75151 4.91088 2.6019 6.61041 2.6019Z" fill="#EA4335"/>
</g>
<defs>
<clipPath id="clip0_439_14705">
<rect width="40" height="15.9375" fill="white"/>
</clipPath>
</defs>
</svg>
