<svg width="40" height="25" viewBox="0 0 40 25" fill="none" xmlns="http://www.w3.org/2000/svg">
<path d="M27.8691 0C34.569 6.80727e-05 40 5.43491 40 12.1387C39.9998 18.8423 34.5688 24.2763 27.8691 24.2764C24.8653 24.2764 22.1187 23.1815 20 21.3721C17.8813 23.1814 15.1346 24.2764 12.1309 24.2764C5.43126 24.2762 0.000199342 18.8422 0 12.1387C0 5.43498 5.43114 0.000178435 12.1309 0C15.1343 0 17.8814 1.09428 20 2.90332C22.1186 1.09422 24.8656 0 27.8691 0Z" fill="#ED0006"/>
<path d="M27.8691 0C34.5688 0.000233609 40 5.43502 40 12.1387C39.9998 18.8422 34.5687 24.2761 27.8691 24.2764C24.8654 24.2764 22.1187 23.1814 20 21.3721C22.6069 19.1458 24.2626 15.8368 24.2627 12.1387C24.2627 8.44012 22.6073 5.1297 20 2.90332C22.1186 1.09431 24.8657 0 27.8691 0Z" fill="#F9A000"/>
<path d="M19.9998 2.90381C22.607 5.13018 24.2625 8.43974 24.2625 12.1382C24.2624 15.8364 22.6067 19.1452 19.9998 21.3716C17.3931 19.1452 15.7381 15.8361 15.738 12.1382C15.738 8.44001 17.3929 5.13018 19.9998 2.90381Z" fill="#FF5E00"/>
</svg>
