<svg width="40" height="28" viewBox="0 0 40 28" fill="none" xmlns="http://www.w3.org/2000/svg">
<path fill-rule="evenodd" clip-rule="evenodd" d="M9.36005 18.3706H7.18216C7.03313 18.3706 6.90638 18.4772 6.88314 18.622L6.00228 24.1188C5.98478 24.2273 6.07012 24.325 6.1819 24.325H7.22165C7.37068 24.325 7.49744 24.2184 7.52068 24.0734L7.75825 22.5908C7.78117 22.4456 7.90823 22.3392 8.05696 22.3392H8.7464C10.1811 22.3392 11.009 21.6558 11.2253 20.3018C11.3227 19.7094 11.2295 19.2439 10.9475 18.9179C10.6381 18.56 10.089 18.3706 9.36005 18.3706ZM9.61132 20.3782C9.49225 21.1474 8.89513 21.1474 8.31778 21.1474H7.98912L8.21969 19.7109C8.23338 19.6241 8.3098 19.5602 8.39898 19.5602H8.5496C8.94289 19.5602 9.31393 19.5602 9.50566 19.7808C9.61987 19.9125 9.65494 20.108 9.61132 20.3782ZM15.8703 20.3536H14.8274C14.7385 20.3536 14.6617 20.4175 14.648 20.5044L14.6019 20.7915L14.5289 20.6875C14.3032 20.3649 13.7997 20.2571 13.2972 20.2571C12.1446 20.2571 11.1603 21.1163 10.9686 22.3215C10.869 22.9226 11.0106 23.4974 11.3571 23.8983C11.675 24.2669 12.1297 24.4205 12.6707 24.4205C13.5993 24.4205 14.1144 23.8327 14.1144 23.8327L14.0678 24.1181C14.0503 24.2271 14.1356 24.3249 14.2467 24.3249H15.1862C15.3356 24.3249 15.4616 24.2183 15.4852 24.0732L16.0489 20.5598C16.0668 20.4518 15.9817 20.3536 15.8703 20.3536ZM14.4165 22.3515C14.3158 22.9379 13.8429 23.3316 13.2399 23.3316C12.937 23.3316 12.6949 23.236 12.5396 23.0548C12.3854 22.875 12.3268 22.6188 12.3759 22.3337C12.4699 21.7522 12.9507 21.3457 13.5446 21.3457C13.8407 21.3457 14.0815 21.4425 14.2401 21.6252C14.399 21.8099 14.462 22.0675 14.4165 22.3515ZM20.3768 20.3534H21.4249C21.5716 20.3534 21.6573 20.5155 21.5739 20.634L18.0881 25.5863C18.0316 25.6665 17.9387 25.7142 17.8393 25.7142H16.7926C16.6452 25.7142 16.5591 25.5509 16.6444 25.4321L17.7298 23.9241L16.5755 20.5897C16.5355 20.4738 16.6225 20.3534 16.7478 20.3534H17.7776C17.9114 20.3534 18.0294 20.4399 18.0681 20.5659L18.6807 22.5798L20.1262 20.4841C20.1828 20.4023 20.2768 20.3534 20.3768 20.3534Z" fill="#253B80"/>
<path fill-rule="evenodd" clip-rule="evenodd" d="M31.7395 24.1191L32.6333 18.5217C32.6471 18.4349 32.7235 18.3709 32.8124 18.3706H33.8187C33.9298 18.3706 34.0151 18.4687 33.9976 18.5772L33.1161 24.0737C33.0931 24.2187 32.9664 24.3253 32.8171 24.3253H31.9185C31.8073 24.3253 31.722 24.2276 31.7395 24.1191ZM24.8943 18.3709H22.716C22.5673 18.3709 22.4406 18.4775 22.4173 18.6223L21.5365 24.1191C21.5189 24.2276 21.6043 24.3253 21.7155 24.3253H22.8332C22.9371 24.3253 23.0259 24.2508 23.0422 24.1492L23.2921 22.5911C23.3151 22.4459 23.4421 22.3395 23.5908 22.3395H24.2799C25.7149 22.3395 26.5427 21.6561 26.7591 20.3021C26.8569 19.7097 26.763 19.2442 26.4812 18.9182C26.1719 18.5603 25.6232 18.3709 24.8943 18.3709ZM25.1456 20.3785C25.0268 21.1477 24.4297 21.1477 23.852 21.1477H23.5236L23.7545 19.7112C23.7683 19.6244 23.844 19.5604 23.9335 19.5604H24.0841C24.4771 19.5604 24.8485 19.5604 25.0401 19.7811C25.1544 19.9128 25.1892 20.1083 25.1456 20.3785ZM31.404 20.3539H30.3618C30.2722 20.3539 30.1961 20.4178 30.1827 20.5047L30.1366 20.7918L30.0633 20.6878C29.8376 20.3652 29.3345 20.2574 28.8319 20.2574C27.6793 20.2574 26.6953 21.1165 26.5036 22.3218C26.4043 22.9229 26.5453 23.4977 26.8918 23.8986C27.2102 24.2672 27.6644 24.4208 28.2054 24.4208C29.134 24.4208 29.6489 23.833 29.6489 23.833L29.6025 24.1184C29.585 24.2274 29.6703 24.3252 29.7822 24.3252H30.7212C30.8699 24.3252 30.9966 24.2186 31.0199 24.0735L31.5839 20.5601C31.6012 20.4521 31.5158 20.3539 31.404 20.3539ZM29.9503 22.3518C29.8502 22.9382 29.3767 23.3319 28.7736 23.3319C28.4713 23.3319 28.2287 23.2363 28.0733 23.0551C27.9191 22.8753 27.8612 22.6191 27.9097 22.334C28.0041 21.7524 28.4844 21.346 29.0783 21.346C29.3745 21.346 29.6152 21.4428 29.7739 21.6255C29.9334 21.8102 29.9964 22.0678 29.9503 22.3518Z" fill="#179BD7"/>
<path d="M17.42 16.4044L17.6878 14.7306L17.0913 14.7169H14.2434L16.2226 2.36502C16.2286 2.32773 16.2487 2.29296 16.2779 2.26827C16.307 2.24359 16.3445 2.22998 16.3834 2.22998H21.1855C22.7797 2.22998 23.8798 2.5565 24.4543 3.20097C24.7235 3.50332 24.8951 3.81925 24.978 4.16693C25.065 4.53176 25.0666 4.96762 24.9816 5.49923L24.9754 5.53803V5.87865L25.2448 6.02882C25.4716 6.14723 25.6517 6.28278 25.7899 6.43798C26.0204 6.69647 26.1694 7.02501 26.2323 7.41451C26.2973 7.81511 26.2758 8.29179 26.1694 8.83146C26.0465 9.45226 25.8478 9.99293 25.5796 10.4354C25.3328 10.843 25.0184 11.181 24.6453 11.4431C24.2889 11.692 23.8655 11.881 23.3869 12.002C22.923 12.1208 22.3942 12.1809 21.8141 12.1809H21.4404C21.1732 12.1809 20.9136 12.2756 20.7099 12.4454C20.5056 12.6188 20.3703 12.8555 20.3289 13.1146L20.3008 13.2653L19.8277 16.2154L19.8062 16.3238C19.8006 16.3582 19.7909 16.3753 19.7766 16.3869C19.7638 16.3973 19.7453 16.4044 19.7274 16.4044H17.42Z" fill="#253B80"/>
<path d="M25.4998 5.57764C25.4855 5.66783 25.4691 5.76004 25.4507 5.85477C24.8173 9.05499 22.6508 10.1605 19.8836 10.1605H18.4748C18.1364 10.1605 17.8512 10.4024 17.7985 10.7309L17.0771 15.2338L16.8729 16.51C16.8385 16.7257 17.0075 16.9202 17.2286 16.9202H19.7276C20.0235 16.9202 20.2748 16.7086 20.3213 16.4214L20.3459 16.2964L20.8165 13.3577L20.8467 13.1965C20.8927 12.9083 21.1445 12.6967 21.4405 12.6967H21.8142C24.2352 12.6967 26.1305 11.7292 26.6845 8.92952C26.9159 7.75998 26.7961 6.78345 26.1837 6.09664C25.9985 5.88954 25.7686 5.71771 25.4998 5.57764Z" fill="#179BD7"/>
<path d="M24.8372 5.31748C24.7405 5.28976 24.6406 5.26456 24.5382 5.24189C24.4353 5.21973 24.3298 5.20007 24.2213 5.18294C23.8414 5.12247 23.4253 5.09375 22.9793 5.09375H19.2155C19.1228 5.09375 19.0348 5.1144 18.9559 5.1517C18.7823 5.23382 18.6534 5.39558 18.6221 5.59361L17.8213 10.5852L17.7983 10.7308C17.8511 10.4022 18.1363 10.1604 18.4746 10.1604H19.8835C22.6507 10.1604 24.8173 9.05434 25.4506 5.85462C25.4694 5.75989 25.4853 5.66768 25.4996 5.57749C25.3395 5.49384 25.1658 5.42229 24.979 5.36131C24.933 5.3462 24.8854 5.33159 24.8372 5.31748Z" fill="#222D65"/>
<path d="M18.6218 5.59382C18.6531 5.39578 18.7822 5.23403 18.9556 5.1524C19.035 5.11511 19.1226 5.09445 19.2151 5.09445H22.9791C23.4251 5.09445 23.8412 5.12317 24.221 5.18364C24.3296 5.20077 24.4351 5.22043 24.538 5.24259C24.6404 5.26528 24.7402 5.29047 24.837 5.31818C24.8851 5.33229 24.9327 5.3469 24.9792 5.36152C25.1661 5.42248 25.3397 5.49454 25.4999 5.57769C25.6884 4.39505 25.4984 3.58984 24.8488 2.8607C24.1326 2.05801 22.8399 1.71436 21.1858 1.71436H16.3835C16.0456 1.71436 15.7575 1.95621 15.7052 2.28526L13.7051 14.7641C13.6656 15.011 13.8591 15.2338 14.112 15.2338H17.0768L17.8211 10.5854L18.6218 5.59382Z" fill="#253B80"/>
</svg>
