<svg width="40" height="13" viewBox="0 0 40 13" fill="none" xmlns="http://www.w3.org/2000/svg">
<path d="M20.687 4.02202C20.6642 5.77461 22.2906 6.75257 23.5158 7.33408C24.7745 7.93066 25.1973 8.31326 25.1923 8.84683C25.183 9.66331 24.1883 10.0237 23.2575 10.0377C21.6336 10.0622 20.6894 9.61066 19.9388 9.26915L19.3538 11.9353C20.1069 12.2733 21.5014 12.5681 22.9475 12.5811C26.342 12.5811 28.5628 10.949 28.5748 8.41857C28.5881 5.2071 24.0142 5.02935 24.0455 3.59391C24.0563 3.15866 24.4827 2.69418 25.417 2.57608C25.8795 2.51643 27.1562 2.47077 28.6037 3.12L29.1719 0.540421C28.3934 0.264353 27.393 2.86102e-06 26.1473 2.86102e-06C22.9523 2.86102e-06 20.7052 1.65428 20.687 4.02202ZM34.6309 0.222197C34.0111 0.222197 33.4888 0.574359 33.2556 1.11478L28.4067 12.3916H31.7987L32.4738 10.5746H36.6188L37.0103 12.3916H40L37.3911 0.222197H34.6309ZM35.1055 3.5096L36.0844 8.07934H33.4034L35.1055 3.5096ZM16.5744 0.222349L13.9006 12.3914H17.133L19.8055 0.222045L16.5744 0.222349ZM11.7927 0.222349L8.42828 8.50516L7.06734 1.46237C6.90766 0.676173 6.27703 0.222197 5.57672 0.222197H0.0770312L0 0.575577C1.12906 0.814207 2.41188 1.19909 3.18906 1.61091C3.66469 1.86248 3.80031 2.08239 3.95656 2.68018L6.53422 12.3916H9.95L15.1869 0.222197L11.7927 0.222349Z" fill="url(#paint0_linear_439_14716)"/>
<defs>
<linearGradient id="paint0_linear_439_14716" x1="1838.96" y1="37.8186" x2="1874.43" y2="-1254.33" gradientUnits="userSpaceOnUse">
<stop stop-color="#222357"/>
<stop offset="1" stop-color="#254AA5"/>
</linearGradient>
</defs>
</svg>
